<svg id="a" class="img-fluid" width="512" height="512" version="1.1" viewBox="0 0 512 512" xmlns="http://www.w3.org/2000/svg" xmlns:xlink="http://www.w3.org/1999/xlink">
 <defs>
  <linearGradient id="c" x1="8291.3" x2="15085" y1="5415.7" y2="13512" gradientUnits="userSpaceOnUse">
   <stop stop-color="#ff0b02" offset="0"/>
   <stop stop-color="#fe640b" offset=".085598"/>
   <stop stop-color="#fe8b09" offset=".19082"/>
   <stop stop-color="#fdbc0e" offset=".28065"/>
   <stop stop-color="#fdd908" offset=".37196"/>
   <stop stop-color="#fde706" offset=".45295"/>
   <stop stop-color="#c7ec07" offset=".51598"/>
   <stop stop-color="#94ee0a" offset=".57178"/>
   <stop stop-color="#6cf312" offset=".60481"/>
   <stop stop-color="#31f199" offset=".65227"/>
   <stop stop-color="#1fe4cf" offset=".69758"/>
   <stop stop-color="#28d2d4" offset=".7409"/>
   <stop stop-color="#8b43dd" offset=".88358"/>
   <stop stop-color="#9c21e5" offset=".935"/>
   <stop stop-color="#9c21e5" offset="1"/>
  </linearGradient>
  <linearGradient id="b" x1="4024.8" x2="16384" y1="2729.8" y2="17459" gradientUnits="userSpaceOnUse">
   <stop stop-color="#ff0b02" offset="0"/>
   <stop stop-color="#fe640b" offset=".23705"/>
   <stop stop-color="#fe8b09" offset=".30285"/>
   <stop stop-color="#fdbc0e" offset=".38438"/>
   <stop stop-color="#fdd908" offset=".4342"/>
   <stop stop-color="#fde706" offset=".53594"/>
   <stop stop-color="#c7ec07" offset=".57822"/>
   <stop stop-color="#94ee0a" offset=".61535"/>
   <stop stop-color="#6cf312" offset=".6546"/>
   <stop stop-color="#31f199" offset=".68961"/>
   <stop stop-color="#1fe4cf" offset=".7204"/>
   <stop stop-color="#28d2d4" offset=".75542"/>
   <stop stop-color="#5091db" offset=".79255"/>
   <stop stop-color="#8b43dd" offset=".82756"/>
   <stop stop-color="#9c21e5" offset=".88313"/>
   <stop stop-color="#9c21e5" offset="1"/>
  </linearGradient>
  <linearGradient id="e" x1="8291.3" x2="15085" y1="5415.7" y2="13512" gradientUnits="userSpaceOnUse" xlink:href="#c"/>
  <linearGradient id="d" x1="4024.8" x2="16384" y1="2729.8" y2="17459" gradientUnits="userSpaceOnUse" xlink:href="#b"/>
 </defs>
 <g transform="matrix(.024603 0 0 .024603 4.9455 7.6628)" fill="url(#e)" stroke="url(#d)" stroke-width="334.72" style="paint-order:stroke fill markers">
  <path d="m8580 20075c-114-37-202-165-231-340-22-129-7-253 60-515 98-386 109-480 90-761-8-106-14-257-14-334 0-140 0-140 97-315 54-96 114-215 133-263 94-233 132-640 81-872-46-210-129-398-226-513-33-40-60-79-60-88 0-8-4-12-10-9-11 7-68-21-132-63-42-29-89-56-198-116-31-17-107-80-175-147-66-64-130-121-142-128-43-22-78-14-117 29-34 38-36 43-36 113 0 45 7 96 19 133 71 219 85 279 85 374 0 82-3 104-28 160-37 87-64 188-72 269-9 92-40 205-69 251-53 85-184 133-298 110-125-24-195-80-250-199-27-58-31-78-35-176-5-154 8-239 82-535 25-102 51-207 58-235 6-27 12-106 12-175-1-188-22-246-186-496-48-71-92-135-100-141-7-6-38-16-68-23-74-16-124-2-171 47-31 33-99 135-99 148 0 3-13 23-29 46-82 113-262 192-394 174-82-12-194-57-245-98-49-40-64-139-37-244 21-81 19-110-10-138-76-77-214 16-536 359-195 208-289 298-449 427-208 168-274 206-780 452-230 111-401 211-548 321-122 91-398 362-457 450-195 287-313 539-395 846-100 374-141 509-187 615-30 70-42 86-91 123-241 180-577 213-859 82-103-48-160-101-203-187-46-95-59-160-60-295 0-241 92-485 261-685 42-50 135-132 264-233 77-60 270-262 364-380 42-53 105-146 141-208 72-124 233-370 296-453 62-82 206-213 302-276 98-65 271-154 382-197 41-17 81-34 88-39s12-31 12-59c0-66 34-130 108-202 110-107 266-201 617-371 328-159 449-238 596-391 80-83 212-281 281-422 39-80 51-114 52-155 1-49 0-52-26-55-15-2-57 6-93 17-170 53-275 1-275-135 0-67 7-81 84-164 67-72 138-211 144-282 4-61-10-108-34-108-29 0-128 61-209 130-98 82-151 110-221 117-50 5-54 4-82-27-72-78-83-258-24-384 17-36 44-85 60-108 73-107 97-191 69-245-33-62-88-76-317-79-162-1-201-12-280-75-35-28-51-34-106-37-82-5-159 10-267 52-123 48-237 122-442 284-362 288-455 335-723 361-120 11-270 0-382-30-223-60-381-222-426-439-58-278 134-695 391-848 86-50 179-86 265-100 291-50 206-48 1047-26 267 7 341 1 414-37 53-27 77-62 85-125 3-30 16-69 28-87 32-47 115-100 203-131 192-68 235-131 182-273-30-78-91-140-233-234-208-139-302-174-536-199-192-21-325-57-485-130-124-57-152-61-438-71-282-9-462-26-639-60-122-23-183-17-261 26-53 30-267 122-327 141-64 21-204 28-273 15-139-26-228-92-260-192-50-154-21-341 70-449 46-55 191-144 286-175 74-24 97-27 169-23 87 5 149 24 358 108 117 47 222 84 385 136 180 58 365 58 529 2 77-26 208-91 312-156 213-130 383-152 643-80 93 25 136 32 216 32 98 1 102 0 181-40 120-61 188-111 292-213 77-76 100-106 128-167 58-124 63-277 13-409-25-67-48-106-126-211-64-87-83-129-83-187 0-105 54-180 179-248 80-45 155-108 177-150 22-44 17-113-12-172-15-29-67-94-119-147-51-52-103-115-115-140-35-67-38-185-10-345 43-244 25-297-171-490-81-80-139-146-150-171-62-138-10-344 101-401 66-33 130-42 261-36 108 6 122 4 226-26 132-37 212-40 363-11 197 37 290 23 359-55 58-66 83-144 117-363 19-128 16-214-16-337-26-101-62-161-166-273-113-122-203-187-381-277-187-95-295-176-415-308-199-220-344-352-520-472-182-125-230-152-348-195-43-16-109-44-147-63-37-19-115-48-173-66-224-69-285-102-373-203-29-33-90-91-137-129-160-131-179-150-210-207-51-95-63-151-58-276 4-88 11-125 31-179 69-179 236-354 410-432 107-47 306-41 533 15 131 32 312 116 417 193 32 23 113 83 180 133 138 102 188 136 337 224 150 89 246 151 395 254 201 140 335 262 467 428 121 152 138 180 266 449 45 93 59 113 113 158 117 98 150 105 411 86 118-8 118-8 182 24 44 21 75 45 95 73 41 56 84 170 110 293 64 298 105 361 289 454 131 66 191 81 317 81 109-1 153-12 208-54 47-36 60-79 55-180-4-67-12-97-47-176-112-252-120-304-64-383 69-99 141-112 259-47 40 22 82 40 92 40s34-17 53-38c33-37 64-52 166-82 74-22 122-103 123-206 0-81-21-146-72-224-72-110-124-222-141-300-9-41-26-118-37-170-11-53-35-125-53-160-43-85-191-312-295-453-171-230-221-305-279-417-125-243-163-374-163-558 0-219 61-360 180-413 109-49 247-13 390 100 220 175 300 284 434 593 103 237 156 440 226 858 44 267 70 346 135 413 42 43 72 57 175 82 41 10 101 28 132 41 69 29 128 31 151 6 42-46 51-99 51-292 0-190-11-285-55-465-28-116-42-143-157-319-155-236-191-323-292-704-33-125-73-263-89-307-132-357-163-417-323-618-95-119-180-273-198-358-7-32-11-93-8-140 8-153 73-247 179-257 98-9 179 42 267 171 109 161 120 202 133 507 5 142 15 258 24 292 20 78 63 160 156 300 84 124 107 180 154 368 54 218 79 275 238 551 52 92 107 189 121 217 34 68 74 112 149 165 69 50 103 85 143 148 42 67 113 137 190 190 114 76 144 116 282 366 122 224 243 321 364 294 61-14 98-59 143-175 21-55 49-109 65-125 37-37 105-55 179-48 56 5 70 10 155 62 86 51 173 38 222-34 94-138 128-578 106-1381-10-346-11-358-40-470-17-63-45-151-62-195-31-77-32-85-29-210 6-353 7-349-38-465-51-131-66-220-52-315 19-139 56-223 128-287 77-69 220-102 343-79 85 15 122 44 158 122 65 142 62 335-15 812-76 473-84 732-30 1009 34 170 68 247 191 433 52 79 67 129 69 235 3 137 3 135 30 164 17 19 34 26 60 26 30 0 44-9 88-53 53-52 104-77 161-77 37 0 62 14 129 77 49 45 64 53 96 53 63 0 123-47 189-150 42-66 137-183 183-226 44-41 137-100 207-131 44-19 82-26 187-33 157-11 190-23 351-130 196-132 329-180 498-180 201 0 293 78 327 273 16 95 6 270-21 367-39 138-159 344-272 466-42 46-95 107-117 136-98 131-136 280-92 370 28 60 107 106 182 107 50 1 73 31 100 130 35 131 102 192 230 210 77 10 88 21 185 191 92 163 129 215 195 274 78 70 129 90 234 94 79 3 97 1 148-22 59-26 102-55 176-119 65-55 158-97 218-97 78 0 101 36 122 190 6 41 16 112 22 158 29 206 132 312 305 312 146 0 232-69 423-335 32-44 95-107 168-170 118-101 245-235 424-446 53-64 112-128 129-142 35-30 94-37 103-12 22 55-42 238-139 401-32 54-61 103-63 108-2 4-34 55-72 112-118 177-177 300-229 469-39 130-83 198-286 442-19 23-49 73-67 110-32 68-32 68-29 269 2 133 0 216-8 245-12 44-12 44 37 87 96 86 124 99 226 107 171 12 237 44 375 179 72 71 72 71 375 77 269 5 311 8 382 28 91 25 170 60 203 91 57 53 76 156 47 256-42 147-132 256-335 406-161 119-240 199-240 243 0 27 56 75 117 100 19 8 45 34 66 67 43 65 112 133 152 148 17 6 79 18 140 26 138 18 175 29 220 66 56 47 85 114 85 197 0 108-51 206-174 335-36 37-66 76-66 85s-5 22-11 28-9 21-7 33c2 18 20 29 103 58 129 45 175 78 232 162 55 84 61 121 39 248-27 155-19 209 40 264 16 15 99 60 184 102 85 41 168 87 184 102s40 52 54 83c23 48 26 69 26 156 0 85-3 107-23 145-34 64-134 165-226 227-44 29-111 76-150 104-38 28-108 71-155 96-247 133-371 221-480 341-62 67-86 117-76 157 11 44 49 58 170 66 116 7 155 19 190 58 23 26 23 76 0 102-14 15-56 35-141 64-8 3-6 15 8 42 10 20 19 49 19 63 0 40-42 120-99 188-29 35-50 69-47 77 8 23 68 27 149 11 91-19 118-20 151-5 73 34 55 208-33 311-14 18-84 69-156 116-71 46-156 110-187 142-68 71-78 108-53 213 14 62 14 74 1 127-9 33-33 94-55 137-21 43-46 95-54 115-16 38-16 38 15 67 42 39 103 49 323 55 196 5 267 18 345 63 62 37 71 47 130 143 33 54 91 124 156 191 127 129 154 180 154 287 0 121-32 154-178 183-73 14-350 7-447-11-108-20-219-59-290-101-278-162-369-177-503-81-51 37-102 110-102 147 0 60 58 151 150 237 101 95 141 121 286 191 190 91 232 124 278 215 39 76 30 230-16 295-63 89-228 75-370-31-35-26-146-130-248-232-230-231-387-343-457-325-64 16-88 74-68 167 23 110 84 227 198 383 52 71 162 279 182 344 17 54 83 150 167 240 50 53 99 113 109 133 62 120 65 327 7 451-30 65-82 90-188 90-62 0-86-5-140-30-95-44-143-84-199-164-55-78-110-208-166-394-19-66-50-149-67-184-36-75-128-172-228-241-42-29-78-65-101-100-20-30-58-89-85-130-60-92-204-235-251-251-19-6-44-8-57-5-30 7-95 69-131 124-26 39-29 53-29 125 0 54 6 101 18 136 16 45 18 72 13 155-5 78-3 114 10 156 8 30 20 103 26 161 12 130 0 181-52 216-49 33-77 28-159-27-90-60-168-91-247-97-87-6-130 21-172 107-60 123-64 272-13 535 10 55 24 156 30 225 18 198 49 320 183 720 97 290 323 702 501 916 28 34 60 74 71 89 11 16 59 78 108 139 397 504 491 690 490 971-1 143-23 236-84 363-47 98-93 147-174 187-57 28-66 30-190 30-126 0-132-1-199-33-124-59-253-211-349-412-96-204-146-415-192-810-27-233-46-358-65-424-22-79-84-224-122-289-15-26-28-51-28-56 0-4-15-25-34-47-78-92-223-333-289-484-15-34-117-296-159-410-36-96-135-292-186-368-70-104-167-209-235-253-57-37-103-54-227-85-95-23-204-81-276-146-73-66-150-95-275-105-63-5-87-2-144 17-58 19-78 33-139 94-68 68-73 76-129 217-65 163-82 228-92 344-14 167 10 256 115 425 64 102 70 134 70 376 0 237 12 308 84 492 55 140 68 210 64 332-6 156-48 228-170 298-94 54-172 75-278 75-83 0-102-3-151-26-70-34-100-63-132-130-38-80-54-158-67-317-16-186-7-347 31-570 40-229 49-431 25-551-33-158-95-263-273-461-113-125-139-144-220-158-122-21-238-95-304-192-55-81-141-164-186-179-20-6-57-9-84-6-49 6-76 21-206 114-83 58-158 90-238 99-46 6-64 3-112-19-32-14-75-29-96-32-122-23-240 57-371 250-63 93-339 643-362 720-11 38-17 137-23 366-10 353-11 358-107 587-25 59-61 143-79 187-68 161-98 432-96 855 1 168-3 350-9 405-27 265-91 490-173 612-49 74-57 80-140 123-84 42-92 44-185 47-64 2-112-2-142-12z" style="paint-order:stroke fill markers"/>
  <path d="m16845 18443c-16-8-41-25-54-37-36-33-90-150-126-271-41-139-54-171-103-242-62-92-80-134-96-229-18-99-26-131-51-188-21-50-24-164-4-177 32-22 102 2 296 103 418 215 506 307 543 571 22 157-8 256-114 373-92 102-209 141-291 97z" style="paint-order:stroke fill markers"/>
  <path d="m10313 17906c-33-15-33-15-33-88 0-81 11-111 80-223 24-38 59-115 79-170 34-94 39-101 84-129 66-41 102-30 137 39 23 45 25 62 25 175 0 119-1 128-33 202-44 101-82 153-134 179-55 28-160 35-205 15z" style="paint-order:stroke fill markers"/>
  <path d="m792 16424c-64-28-169-113-187-151-26-55-16-153 22-207 65-93 206-125 320-72 42 20 58 35 85 81 18 31 39 66 46 78 16 27 11 180-7 218-21 42-89 69-174 68-39 0-87-7-105-15z" style="paint-order:stroke fill markers"/>
  <path d="m3250 14692c-44-24-61-58-67-136-3-33-14-92-25-129-17-58-19-74-9-114 27-105 65-133 178-133 56 0 67-3 88-26 14-15 25-37 25-49 0-25 46-100 81-132 41-37 141-88 201-102 70-17 166-10 210 16 39 22 67 74 68 123 0 51-38 152-79 207-25 32-62 63-116 95-119 69-129 80-175 175-23 49-57 103-74 121-76 81-233 124-306 84z" style="paint-order:stroke fill markers"/>
  <path d="m18455 14599c-22-12-50-31-63-43-25-23-155-274-173-335-17-57 14-110 83-144 60-29 126-46 178-47 83 0 220 52 303 115 78 59 130 201 106 289-15 59-52 92-153 142-82 40-96 44-165 44-58 0-86-5-116-21z" style="paint-order:stroke fill markers"/>
  <path d="m18775 9005c-38-7-113-23-165-34-74-16-132-21-260-21-165 0-250-11-350-45-60-21-79-36-86-73-6-28-3-32 22-38 16-4 32-11 35-16 3-4 86-11 185-14 252-8 325-22 518-100 89-36 215-88 281-114 145-59 253-80 437-87 155-6 245 9 340 56 86 43 110 126 63 225-40 85-219 198-374 236-156 39-502 52-646 25z" style="paint-order:stroke fill markers"/>
  <path d="m2025 7126c-28-7-57-16-64-20-20-13-48-83-64-161-8-38-28-97-43-130-36-77-38-159-7-265 12-41 25-105 28-141 8-90 30-122 100-148 103-39 246-23 324 36 47 36 63 55 108 128 20 33 51 76 69 95 47 50 73 115 83 212 5 45 16 103 25 127s16 67 16 96c0 99-58 133-204 119-104-10-119-8-186 26-69 35-121 42-185 26z" style="paint-order:stroke fill markers"/>
  <path d="m18247 6376c-61-22-102-60-116-105-17-57-5-106 33-138 72-61 223-101 275-74 66 36 82 153 32 233-16 25-42 55-59 67-40 28-115 36-165 17z" style="paint-order:stroke fill markers"/>
  <path d="m17409 6344c-69-21-75-32-59-112 28-144 83-209 203-242 128-35 287 67 287 185 0 66-49 127-130 164-36 17-65 20-150 20-61 0-124-6-151-15z" style="paint-order:stroke fill markers"/>
  <path d="m3020 6283c-48-25-66-90-46-175 28-120 108-186 237-196 113-8 159 20 159 96 0 91-62 177-171 239-92 52-132 60-179 36z" style="paint-order:stroke fill markers"/>
  <path d="m16831 3744c-22-78-11-192 25-271 8-17 19-67 24-109 14-110 33-143 105-179 53-26 71-30 145-30s91 3 131 27c117 69 148 300 51 390-15 14-62 44-106 67-43 23-93 53-111 67-42 31-135 64-202 71-51 6-51 6-62-33z" style="paint-order:stroke fill markers"/>
  <path d="m12253 1905c-43-30-52-127-28-314 8-64 17-142 20-173 4-31 18-81 33-110 49-96 132-114 287-61 50 17 111 37 137 43 77 20 104 42 124 102 21 65 24 186 5 249-28 99-100 153-256 195-55 14-137 39-183 55-95 33-110 35-139 14z" style="paint-order:stroke fill markers"/>
 </g>
 <g transform="matrix(.024618 0 0 .024618 4.7865 7.4939)" style="paint-order:stroke fill markers">
  <path d="m8580 20075c-114-37-202-165-231-340-22-129-7-253 60-515 98-386 109-480 90-761-8-106-14-257-14-334 0-140 0-140 97-315 54-96 114-215 133-263 94-233 132-640 81-872-46-210-129-398-226-513-33-40-60-79-60-88 0-8-4-12-10-9-11 7-68-21-132-63-42-29-89-56-198-116-31-17-107-80-175-147-66-64-130-121-142-128-43-22-78-14-117 29-34 38-36 43-36 113 0 45 7 96 19 133 71 219 85 279 85 374 0 82-3 104-28 160-37 87-64 188-72 269-9 92-40 205-69 251-53 85-184 133-298 110-125-24-195-80-250-199-27-58-31-78-35-176-5-154 8-239 82-535 25-102 51-207 58-235 6-27 12-106 12-175-1-188-22-246-186-496-48-71-92-135-100-141-7-6-38-16-68-23-74-16-124-2-171 47-31 33-99 135-99 148 0 3-13 23-29 46-82 113-262 192-394 174-82-12-194-57-245-98-49-40-64-139-37-244 21-81 19-110-10-138-76-77-214 16-536 359-195 208-289 298-449 427-208 168-274 206-780 452-230 111-401 211-548 321-122 91-398 362-457 450-195 287-313 539-395 846-100 374-141 509-187 615-30 70-42 86-91 123-241 180-577 213-859 82-103-48-160-101-203-187-46-95-59-160-60-295 0-241 92-485 261-685 42-50 135-132 264-233 77-60 270-262 364-380 42-53 105-146 141-208 72-124 233-370 296-453 62-82 206-213 302-276 98-65 271-154 382-197 41-17 81-34 88-39s12-31 12-59c0-66 34-130 108-202 110-107 266-201 617-371 328-159 449-238 596-391 80-83 212-281 281-422 39-80 51-114 52-155 1-49 0-52-26-55-15-2-57 6-93 17-170 53-275 1-275-135 0-67 7-81 84-164 67-72 138-211 144-282 4-61-10-108-34-108-29 0-128 61-209 130-98 82-151 110-221 117-50 5-54 4-82-27-72-78-83-258-24-384 17-36 44-85 60-108 73-107 97-191 69-245-33-62-88-76-317-79-162-1-201-12-280-75-35-28-51-34-106-37-82-5-159 10-267 52-123 48-237 122-442 284-362 288-455 335-723 361-120 11-270 0-382-30-223-60-381-222-426-439-58-278 134-695 391-848 86-50 179-86 265-100 291-50 206-48 1047-26 267 7 341 1 414-37 53-27 77-62 85-125 3-30 16-69 28-87 32-47 115-100 203-131 192-68 235-131 182-273-30-78-91-140-233-234-208-139-302-174-536-199-192-21-325-57-485-130-124-57-152-61-438-71-282-9-462-26-639-60-122-23-183-17-261 26-53 30-267 122-327 141-64 21-204 28-273 15-139-26-228-92-260-192-50-154-21-341 70-449 46-55 191-144 286-175 74-24 97-27 169-23 87 5 149 24 358 108 117 47 222 84 385 136 180 58 365 58 529 2 77-26 208-91 312-156 213-130 383-152 643-80 93 25 136 32 216 32 98 1 102 0 181-40 120-61 188-111 292-213 77-76 100-106 128-167 58-124 63-277 13-409-25-67-48-106-126-211-64-87-83-129-83-187 0-105 54-180 179-248 80-45 155-108 177-150 22-44 17-113-12-172-15-29-67-94-119-147-51-52-103-115-115-140-35-67-38-185-10-345 43-244 25-297-171-490-81-80-139-146-150-171-62-138-10-344 101-401 66-33 130-42 261-36 108 6 122 4 226-26 132-37 212-40 363-11 197 37 290 23 359-55 58-66 83-144 117-363 19-128 16-214-16-337-26-101-62-161-166-273-113-122-203-187-381-277-187-95-295-176-415-308-199-220-344-352-520-472-182-125-230-152-348-195-43-16-109-44-147-63-37-19-115-48-173-66-224-69-285-102-373-203-29-33-90-91-137-129-160-131-179-150-210-207-51-95-63-151-58-276 4-88 11-125 31-179 69-179 236-354 410-432 107-47 306-41 533 15 131 32 312 116 417 193 32 23 113 83 180 133 138 102 188 136 337 224 150 89 246 151 395 254 201 140 335 262 467 428 121 152 138 180 266 449 45 93 59 113 113 158 117 98 150 105 411 86 118-8 118-8 182 24 44 21 75 45 95 73 41 56 84 170 110 293 64 298 105 361 289 454 131 66 191 81 317 81 109-1 153-12 208-54 47-36 60-79 55-180-4-67-12-97-47-176-112-252-120-304-64-383 69-99 141-112 259-47 40 22 82 40 92 40s34-17 53-38c33-37 64-52 166-82 74-22 122-103 123-206 0-81-21-146-72-224-72-110-124-222-141-300-9-41-26-118-37-170-11-53-35-125-53-160-43-85-191-312-295-453-171-230-221-305-279-417-125-243-163-374-163-558 0-219 61-360 180-413 109-49 247-13 390 100 220 175 300 284 434 593 103 237 156 440 226 858 44 267 70 346 135 413 42 43 72 57 175 82 41 10 101 28 132 41 69 29 128 31 151 6 42-46 51-99 51-292 0-190-11-285-55-465-28-116-42-143-157-319-155-236-191-323-292-704-33-125-73-263-89-307-132-357-163-417-323-618-95-119-180-273-198-358-7-32-11-93-8-140 8-153 73-247 179-257 98-9 179 42 267 171 109 161 120 202 133 507 5 142 15 258 24 292 20 78 63 160 156 300 84 124 107 180 154 368 54 218 79 275 238 551 52 92 107 189 121 217 34 68 74 112 149 165 69 50 103 85 143 148 42 67 113 137 190 190 114 76 144 116 282 366 122 224 243 321 364 294 61-14 98-59 143-175 21-55 49-109 65-125 37-37 105-55 179-48 56 5 70 10 155 62 86 51 173 38 222-34 94-138 128-578 106-1381-10-346-11-358-40-470-17-63-45-151-62-195-31-77-32-85-29-210 6-353 7-349-38-465-51-131-66-220-52-315 19-139 56-223 128-287 77-69 220-102 343-79 85 15 122 44 158 122 65 142 62 335-15 812-76 473-84 732-30 1009 34 170 68 247 191 433 52 79 67 129 69 235 3 137 3 135 30 164 17 19 34 26 60 26 30 0 44-9 88-53 53-52 104-77 161-77 37 0 62 14 129 77 49 45 64 53 96 53 63 0 123-47 189-150 42-66 137-183 183-226 44-41 137-100 207-131 44-19 82-26 187-33 157-11 190-23 351-130 196-132 329-180 498-180 201 0 293 78 327 273 16 95 6 270-21 367-39 138-159 344-272 466-42 46-95 107-117 136-98 131-136 280-92 370 28 60 107 106 182 107 50 1 73 31 100 130 35 131 102 192 230 210 77 10 88 21 185 191 92 163 129 215 195 274 78 70 129 90 234 94 79 3 97 1 148-22 59-26 102-55 176-119 65-55 158-97 218-97 78 0 101 36 122 190 6 41 16 112 22 158 29 206 132 312 305 312 146 0 232-69 423-335 32-44 95-107 168-170 118-101 245-235 424-446 53-64 112-128 129-142 35-30 94-37 103-12 22 55-42 238-139 401-32 54-61 103-63 108-2 4-34 55-72 112-118 177-177 300-229 469-39 130-83 198-286 442-19 23-49 73-67 110-32 68-32 68-29 269 2 133 0 216-8 245-12 44-12 44 37 87 96 86 124 99 226 107 171 12 237 44 375 179 72 71 72 71 375 77 269 5 311 8 382 28 91 25 170 60 203 91 57 53 76 156 47 256-42 147-132 256-335 406-161 119-240 199-240 243 0 27 56 75 117 100 19 8 45 34 66 67 43 65 112 133 152 148 17 6 79 18 140 26 138 18 175 29 220 66 56 47 85 114 85 197 0 108-51 206-174 335-36 37-66 76-66 85s-5 22-11 28-9 21-7 33c2 18 20 29 103 58 129 45 175 78 232 162 55 84 61 121 39 248-27 155-19 209 40 264 16 15 99 60 184 102 85 41 168 87 184 102s40 52 54 83c23 48 26 69 26 156 0 85-3 107-23 145-34 64-134 165-226 227-44 29-111 76-150 104-38 28-108 71-155 96-247 133-371 221-480 341-62 67-86 117-76 157 11 44 49 58 170 66 116 7 155 19 190 58 23 26 23 76 0 102-14 15-56 35-141 64-8 3-6 15 8 42 10 20 19 49 19 63 0 40-42 120-99 188-29 35-50 69-47 77 8 23 68 27 149 11 91-19 118-20 151-5 73 34 55 208-33 311-14 18-84 69-156 116-71 46-156 110-187 142-68 71-78 108-53 213 14 62 14 74 1 127-9 33-33 94-55 137-21 43-46 95-54 115-16 38-16 38 15 67 42 39 103 49 323 55 196 5 267 18 345 63 62 37 71 47 130 143 33 54 91 124 156 191 127 129 154 180 154 287 0 121-32 154-178 183-73 14-350 7-447-11-108-20-219-59-290-101-278-162-369-177-503-81-51 37-102 110-102 147 0 60 58 151 150 237 101 95 141 121 286 191 190 91 232 124 278 215 39 76 30 230-16 295-63 89-228 75-370-31-35-26-146-130-248-232-230-231-387-343-457-325-64 16-88 74-68 167 23 110 84 227 198 383 52 71 162 279 182 344 17 54 83 150 167 240 50 53 99 113 109 133 62 120 65 327 7 451-30 65-82 90-188 90-62 0-86-5-140-30-95-44-143-84-199-164-55-78-110-208-166-394-19-66-50-149-67-184-36-75-128-172-228-241-42-29-78-65-101-100-20-30-58-89-85-130-60-92-204-235-251-251-19-6-44-8-57-5-30 7-95 69-131 124-26 39-29 53-29 125 0 54 6 101 18 136 16 45 18 72 13 155-5 78-3 114 10 156 8 30 20 103 26 161 12 130 0 181-52 216-49 33-77 28-159-27-90-60-168-91-247-97-87-6-130 21-172 107-60 123-64 272-13 535 10 55 24 156 30 225 18 198 49 320 183 720 97 290 323 702 501 916 28 34 60 74 71 89 11 16 59 78 108 139 397 504 491 690 490 971-1 143-23 236-84 363-47 98-93 147-174 187-57 28-66 30-190 30-126 0-132-1-199-33-124-59-253-211-349-412-96-204-146-415-192-810-27-233-46-358-65-424-22-79-84-224-122-289-15-26-28-51-28-56 0-4-15-25-34-47-78-92-223-333-289-484-15-34-117-296-159-410-36-96-135-292-186-368-70-104-167-209-235-253-57-37-103-54-227-85-95-23-204-81-276-146-73-66-150-95-275-105-63-5-87-2-144 17-58 19-78 33-139 94-68 68-73 76-129 217-65 163-82 228-92 344-14 167 10 256 115 425 64 102 70 134 70 376 0 237 12 308 84 492 55 140 68 210 64 332-6 156-48 228-170 298-94 54-172 75-278 75-83 0-102-3-151-26-70-34-100-63-132-130-38-80-54-158-67-317-16-186-7-347 31-570 40-229 49-431 25-551-33-158-95-263-273-461-113-125-139-144-220-158-122-21-238-95-304-192-55-81-141-164-186-179-20-6-57-9-84-6-49 6-76 21-206 114-83 58-158 90-238 99-46 6-64 3-112-19-32-14-75-29-96-32-122-23-240 57-371 250-63 93-339 643-362 720-11 38-17 137-23 366-10 353-11 358-107 587-25 59-61 143-79 187-68 161-98 432-96 855 1 168-3 350-9 405-27 265-91 490-173 612-49 74-57 80-140 123-84 42-92 44-185 47-64 2-112-2-142-12zm3461-4670c37-7 86-22 110-33 24-10 51-22 60-25s49-27 90-53c318-203 568-532 768-1011 130-312 180-579 161-873-10-160-22-236-62-390-71-276-187-502-416-810-47-63-85-123-85-132 1-10-5-18-14-18-8 0-58-41-112-91-122-117-208-185-296-238-79-47-82-53-84-166-1-83-33-304-60-424-11-47-27-124-37-171-18-91-80-289-95-305-5-5-9-15-9-22 0-22-116-258-171-352-54-89-149-233-221-334-92-131-243-271-412-383-33-21-75-50-95-64-103-70-318-153-456-176-184-29-521-17-685 25-297 77-659 257-939 468-159 119-445 413-585 601-99 132-99 132-190 132-296 0-629 92-1001 277-219 109-353 209-533 395-346 357-489 685-557 1278-33 282-9 611 60 829 110 349 243 493 630 688 238 120 438 184 675 219 127 18 473 21 586 5 43-7 113-17 154-22 41-6 110-17 153-25 73-13 137-22 372-55 53-8 200-13 355-13 294-1 271-5 395 74 262 168 530 374 567 436 11 19 24 32 29 29 4-3 61 41 126 97 269 236 399 327 608 429 154 75 270 118 416 155 257 65 611 86 800 49zm2499-2644c162-56 396-202 540-338 125-119 295-358 361-510 80-182 103-309 103-558-1-288-40-518-134-795-89-263-179-433-396-749-29-42-34-55-23-62s9-9-7-9c-13 0-67-44-142-115-66-63-136-120-154-128s-70-19-115-26c-191-28-488 62-737 223-197 128-446 352-608 548-176 212-378 553-438 738-60 186-73 259-74 415 0 87 5 175 13 210 13 60 62 223 84 280 6 17 10 36 9 43-2 6 2 12 7 12s38 41 72 91c82 119 248 285 379 378 187 133 473 268 700 332 157 43 194 48 355 45 113-3 153-7 205-25zm-7408-2196c290-46 494-145 681-327 110-108 159-173 213-280 52-105 67-142 103-273 42-151 52-231 58-460 8-316-11-493-87-802-42-170-94-317-162-455-44-91-157-265-222-341-99-117-252-221-367-250-49-13-63-12-188 14-213 44-363 99-571 206-295 153-562 367-781 625-130 154-211 271-278 405-112 223-134 324-134 613 0 310 30 442 163 715 78 161 132 238 233 330 110 100 272 175 499 229 313 74 589 91 840 51zm5903-1004c191-37 304-75 465-159 239-124 492-347 629-557 87-132 195-352 233-470 82-262 120-558 121-945 1-460-38-761-144-1112-17-56-39-130-49-163-80-273-162-456-285-637-215-315-438-502-665-559-89-22-197-27-227-10-10 5-49 20-88 32-168 52-384 162-550 280-153 108-399 372-483 519-91 160-122 219-169 324-30 67-71 162-90 211-19 50-43 110-53 135-40 100-116 384-158 595-40 199-63 330-94 535-17 115-17 527 0 655 14 106 44 255 69 344 21 76 94 241 142 319 90 151 282 355 426 452 141 96 349 186 495 215 103 21 356 19 475-4zm2200-295c54-25 80-51 125-124 106-174 71-440-76-587-60-60-147-79-212-46-50 26-80 64-126 161-45 95-59 171-53 285 6 121 34 195 100 262 73 76 152 92 242 49zm-5372-650c307-65 542-198 767-432 265-277 424-542 621-1034 176-443 255-721 313-1110 14-92 27-277 27-385 0-477-165-905-492-1275-57-64-76-79-136-103-38-15-94-34-124-42-72-19-313-20-411-1-141 28-363 109-529 194-73 37-240 148-284 189-11 10-61 52-110 93-275 229-473 422-580 565-33 44-65 87-72 95s-50 67-97 131c-300 411-520 879-582 1236-22 124-30 438-14 560 29 232 150 538 293 739 81 115 269 303 382 382 190 135 358 194 635 226 81 9 286-5 393-28zm-2587-1660c65-30 115-74 170-151 56-80 88-153 103-236 27-159 4-252-74-297-59-34-160-26-247 19-94 50-190 150-236 245-35 76-37 83-37 184 0 97 2 109 28 153 27 45 80 89 123 100 51 13 121 6 170-17zm6105-2109c114-59 180-176 182-322 1-95-16-153-81-278-32-61-64-105-105-144-57-54-59-55-105-50-39 4-53 12-84 47-77 86-118 209-125 377-5 98-3 122 17 182 25 78 60 135 110 178 62 54 103 56 191 10zm-2163-670c153-102 265-317 265-509 0-94-11-123-60-155-102-67-427 112-512 282-69 138-49 308 45 395 46 42 46 42 117 38 67-3 78-7 145-51z" style="paint-order:stroke fill markers"/>
  <path d="m16845 18443c-16-8-41-25-54-37-36-33-90-150-126-271-41-139-54-171-103-242-62-92-80-134-96-229-18-99-26-131-51-188-21-50-24-164-4-177 32-22 102 2 296 103 418 215 506 307 543 571 22 157-8 256-114 373-92 102-209 141-291 97z" style="paint-order:stroke fill markers"/>
  <path d="m10313 17906c-33-15-33-15-33-88 0-81 11-111 80-223 24-38 59-115 79-170 34-94 39-101 84-129 66-41 102-30 137 39 23 45 25 62 25 175 0 119-1 128-33 202-44 101-82 153-134 179-55 28-160 35-205 15z" style="paint-order:stroke fill markers"/>
  <path d="m792 16424c-64-28-169-113-187-151-26-55-16-153 22-207 65-93 206-125 320-72 42 20 58 35 85 81 18 31 39 66 46 78 16 27 11 180-7 218-21 42-89 69-174 68-39 0-87-7-105-15z" style="paint-order:stroke fill markers"/>
  <path d="m3250 14692c-44-24-61-58-67-136-3-33-14-92-25-129-17-58-19-74-9-114 27-105 65-133 178-133 56 0 67-3 88-26 14-15 25-37 25-49 0-25 46-100 81-132 41-37 141-88 201-102 70-17 166-10 210 16 39 22 67 74 68 123 0 51-38 152-79 207-25 32-62 63-116 95-119 69-129 80-175 175-23 49-57 103-74 121-76 81-233 124-306 84z" style="paint-order:stroke fill markers"/>
  <path d="m18455 14599c-22-12-50-31-63-43-25-23-155-274-173-335-17-57 14-110 83-144 60-29 126-46 178-47 83 0 220 52 303 115 78 59 130 201 106 289-15 59-52 92-153 142-82 40-96 44-165 44-58 0-86-5-116-21z" style="paint-order:stroke fill markers"/>
  <path d="m18775 9005c-38-7-113-23-165-34-74-16-132-21-260-21-165 0-250-11-350-45-60-21-79-36-86-73-6-28-3-32 22-38 16-4 32-11 35-16 3-4 86-11 185-14 252-8 325-22 518-100 89-36 215-88 281-114 145-59 253-80 437-87 155-6 245 9 340 56 86 43 110 126 63 225-40 85-219 198-374 236-156 39-502 52-646 25z" style="paint-order:stroke fill markers"/>
  <path d="m2025 7126c-28-7-57-16-64-20-20-13-48-83-64-161-8-38-28-97-43-130-36-77-38-159-7-265 12-41 25-105 28-141 8-90 30-122 100-148 103-39 246-23 324 36 47 36 63 55 108 128 20 33 51 76 69 95 47 50 73 115 83 212 5 45 16 103 25 127s16 67 16 96c0 99-58 133-204 119-104-10-119-8-186 26-69 35-121 42-185 26z" style="paint-order:stroke fill markers"/>
  <path d="m18247 6376c-61-22-102-60-116-105-17-57-5-106 33-138 72-61 223-101 275-74 66 36 82 153 32 233-16 25-42 55-59 67-40 28-115 36-165 17z" style="paint-order:stroke fill markers"/>
  <path d="m17409 6344c-69-21-75-32-59-112 28-144 83-209 203-242 128-35 287 67 287 185 0 66-49 127-130 164-36 17-65 20-150 20-61 0-124-6-151-15z" style="paint-order:stroke fill markers"/>
  <path d="m3020 6283c-48-25-66-90-46-175 28-120 108-186 237-196 113-8 159 20 159 96 0 91-62 177-171 239-92 52-132 60-179 36z" style="paint-order:stroke fill markers"/>
  <path d="m16831 3744c-22-78-11-192 25-271 8-17 19-67 24-109 14-110 33-143 105-179 53-26 71-30 145-30s91 3 131 27c117 69 148 300 51 390-15 14-62 44-106 67-43 23-93 53-111 67-42 31-135 64-202 71-51 6-51 6-62-33z" style="paint-order:stroke fill markers"/>
  <path d="m12253 1905c-43-30-52-127-28-314 8-64 17-142 20-173 4-31 18-81 33-110 49-96 132-114 287-61 50 17 111 37 137 43 77 20 104 42 124 102 21 65 24 186 5 249-28 99-100 153-256 195-55 14-137 39-183 55-95 33-110 35-139 14z" style="paint-order:stroke fill markers"/>
 </g>
</svg>
